<svg height="512pt" viewBox="0 0 512.00009 512" width="512pt" xmlns="http://www.w3.org/2000/svg"><g fill="#ff6f00"><path d="m502.019531 90.964844c-1.917969 0-3.835937-.730469-5.300781-2.195313l-11.828125-11.828125c-2.929687-2.929687-2.929687-7.679687 0-10.609375 2.929687-2.925781 7.675781-2.925781 10.605469.003907l11.828125 11.828124c2.929687 2.925782 2.929687 7.675782 0 10.605469-1.464844 1.464844-3.382813 2.195313-5.304688 2.195313zm0 0"/><path d="m485.324219 107.660156c-1.917969 0-3.839844-.730468-5.304688-2.195312l-11.828125-11.824219c-2.925781-2.929687-2.925781-7.679687 0-10.609375 2.929688-2.929688 7.679688-2.925781 10.609375 0l11.828125 11.828125c2.925782 2.929687 2.925782 7.675781 0 10.605469-1.464844 1.464844-3.386718 2.195312-5.304687 2.195312zm0 0"/><path d="m468.625 124.359375c-1.917969 0-3.839844-.734375-5.300781-2.195313l-11.828125-11.828124c-2.929688-2.929688-2.929688-7.679688 0-10.605469 2.929687-2.929688 7.675781-2.929688 10.605468 0l11.828126 11.824219c2.929687 2.929687 2.929687 7.679687 0 10.605468-1.464844 1.464844-3.382813 2.199219-5.304688 2.199219zm0 0"/><path d="m440.363281 29.308594c-1.917969 0-3.839843-.734375-5.304687-2.199219l-11.828125-11.828125c-2.925781-2.929688-2.925781-7.675781 0-10.605469 2.929687-2.929687 7.679687-2.929687 10.609375 0l11.824218 11.828125c2.929688 2.929688 2.929688 7.679688 0 10.605469-1.460937 1.464844-3.382812 2.199219-5.300781 2.199219zm0 0"/><path d="m423.664062 46.003906c-1.917968 0-3.835937-.730468-5.300781-2.195312l-11.828125-11.828125c-2.929687-2.929688-2.929687-7.679688 0-10.609375 2.929688-2.925782 7.679688-2.925782 10.605469.003906l11.828125 11.828125c2.929688 2.925781 2.929688 7.675781 0 10.605469-1.464844 1.464844-3.382812 2.195312-5.304688 2.195312zm0 0"/><path d="m406.96875 62.699219c-1.917969 0-3.839844-.730469-5.304688-2.195313l-11.828124-11.824218c-2.929688-2.929688-2.929688-7.679688 0-10.609376 2.929687-2.929687 7.679687-2.925781 10.605468 0l11.828125 11.828126c2.929688 2.929687 2.929688 7.675781 0 10.605468-1.460937 1.464844-3.382812 2.195313-5.300781 2.195313zm0 0"/></g><path d="m343.507812 294.640625c-2.148437-19.695313-11.855468-41.054687-28.070312-61.769531-2.800781-3.578125-8.066406-3.824219-11.210938-.679688l-36.886718 36.886719-24.417969-24.421875 36.886719-36.882812c1.519531-1.519532 2.3125-3.617188 2.183594-5.757813-.132813-2.144531-1.175782-4.128906-2.863282-5.453125-20.714844-16.214844-42.074218-25.921875-61.769531-28.070312-42.917969-4.671876-75.085937 27.882812-82.152344 66.941406-3.496093 19.316406-20 34.511718-39.242187 36.132812-27.089844 2.285156-51.246094 13.324219-69.847656 31.929688-22.03125 22.03125-30.351563 49.414062-24.0625 79.195312 5.503906 26.070313 22.070312 53.507813 47.910156 79.347656 25.835937 25.835938 53.273437 42.402344 79.34375 47.910157 30.421875 6.421875 57.640625-2.511719 79.195312-24.066407 18.605469-18.601562 29.644532-42.757812 31.929688-69.847656 1.621094-19.242187 16.816406-35.746094 36.132812-39.242187 39.082032-7.074219 71.625-39.230469 66.941406-82.152344zm0 0" fill="#ef5350"/><path d="m275.109375 212.472656 4.699219-4.699218c1.519531-1.519532 2.3125-3.617188 2.183594-5.757813-.132813-2.144531-1.175782-4.128906-2.863282-5.453125-15.375-12.035156-31.101562-20.472656-46.242187-24.910156 16.890625 12.804687 31.074219 26.660156 42.222656 40.820312zm0 0" fill="#d32f2f"/><path d="m343.507812 294.640625c-2.148437-19.695313-11.855468-41.054687-28.070312-61.769531-2.800781-3.578125-8.066406-3.824219-11.210938-.679688l-10.269531 10.269532c5.175781 10.960937 8.417969 21.804687 9.550781 32.179687 4.683594 42.921875-27.859374 75.078125-66.941406 82.152344-19.316406 3.496093-34.511718 19.996093-36.132812 39.238281-2.285156 27.09375-13.324219 51.246094-31.929688 69.851562-21.554687 21.554688-48.777344 30.484376-79.195312 24.0625-2.984375-.628906-5.992188-1.414062-9.007813-2.332031 16.394531 11.355469 32.960938 18.945313 49.007813 22.332031 30.421875 6.421876 57.640625-2.507812 79.195312-24.0625 18.605469-18.605468 29.644532-42.757812 31.929688-69.851562 1.621094-19.242188 16.816406-35.742188 36.132812-39.238281 39.082032-7.074219 71.625-39.230469 66.941406-82.152344zm0 0" fill="#d32f2f"/><path d="m261.855469 274.199219-24.054688-24.054688c-3.03125-3.03125-3.03125-7.941406 0-10.972656l157.683594-157.683594 35.027344 35.027344-157.683594 157.683594c-3.03125 3.03125-7.941406 3.03125-10.972656 0zm0 0" fill="#757575"/><path d="m230.996094 281c-18.070313-18.070312-47.367188-18.070312-65.4375 0-18.070313 18.070312-18.070313 47.367188 0 65.4375 18.070312 18.070312 47.367187 18.070312 65.4375 0 18.070312-18.070312 18.070312-47.367188 0-65.4375zm0 0" fill="#42a5f5"/><path d="m230.996094 281c-18.070313-18.070312-47.367188-18.070312-65.4375 0-18.070313 18.070312-18.070313 47.367188 0 65.4375 18.070312 18.070312 47.367187 18.070312 65.4375 0 18.070312-18.070312 18.070312-47.367188 0-65.4375zm0 0" fill="#424242"/><path d="m154.597656 420.3125-62.910156-62.910156c-1.828125-1.832032-1.828125-4.796875 0-6.625l12.660156-12.660156c1.832032-1.832032 4.796875-1.832032 6.625 0l62.914063 62.910156c1.828125 1.828125 1.828125 4.796875 0 6.625l-12.660157 12.660156c-1.832031 1.832031-4.796874 1.832031-6.628906 0zm0 0" fill="#ffa000"/><path d="m511.34375 54.261719c-10.707031-23.859375-29.742188-42.898438-53.605469-53.605469-2.839843-1.273438-6.171875-.66015625-8.371093 1.539062l-59.070313 59.070313c-1.394531 1.390625-2.183594 3.273437-2.199219 5.242187l-.113281 14.921876c-.015625 2.011718.773437 3.941406 2.195313 5.363281l35.027343 35.027343c1.40625 1.40625 3.3125 2.195313 5.300781 2.195313h.058594l14.921875-.117187c1.96875-.015626 3.851563-.804688 5.246094-2.195313l59.070313-59.070313c2.199218-2.199218 2.8125-5.53125 1.539062-8.371093zm0 0" fill="#ffa000"/><path d="m180.226562 1.550781c-1.847656-1.417969-4.253906-1.898437-6.503906-1.292969l-127.347656 34.121094c-3.277344.878906-5.558594 3.851563-5.558594 7.242188v96.4375c-.492187-.019532-.988281-.03125-1.480468-.03125-21.691407 0-39.335938 17.648437-39.335938 39.335937 0 21.691407 17.644531 39.335938 39.335938 39.335938 21.691406 0 39.335937-17.644531 39.335937-39.335938v-96.996093l66.632813-17.851563v41.417969c-.492188-.019532-.988282-.027344-1.480469-.027344-21.6875 0-39.335938 17.644531-39.335938 39.335938 0 21.691406 17.648438 39.335937 39.335938 39.335937 21.691406 0 39.335937-17.644531 39.335937-39.335937v-135.742188c0-2.332031-1.082031-4.527344-2.933594-5.949219zm0 0" fill="#ffca28"/><path d="m354.394531 192.628906-10.605469 10.609375-35.027343-35.027343 10.605469-10.605469zm-27.140625 27.140625-35.023437-35.023437-10.609375 10.605468 35.027344 35.027344zm-72.769531 2.722657 35.023437 35.023437 10.609376-10.605469-35.027344-35.027344zm127.050781-57-35.027344-35.027344-10.605468 10.609375 35.023437 35.023437zm27.136719-27.140626-35.023437-35.023437-10.609376 10.605469 35.027344 35.027344zm0 0" fill="#424242"/><path d="m416.933594 78.265625c-2.929688-2.929687-2.929688-7.679687 0-10.605469l33.601562-33.605468c2.929688-2.925782 7.679688-2.925782 10.605469 0 2.929687 2.929687 2.929687 7.679687 0 10.609374l-33.601563 33.601563c-2.929687 2.929687-7.675781 2.929687-10.605468 0zm0 0" fill="#ff6f00"/><path d="m433.734375 95.066406c-2.929687-2.929687-2.929687-7.675781 0-10.605468l33.605469-33.605469c2.925781-2.925781 7.675781-2.925781 10.605468 0 2.925782 2.929687 2.925782 7.679687 0 10.609375l-33.605468 33.601562c-2.929688 2.929688-7.675782 2.925782-10.605469 0zm0 0" fill="#ff6f00"/></svg>