<svg height="512pt" viewBox="-10 0 512 512.0003" width="512pt" xmlns="http://www.w3.org/2000/svg"><g fill="#f44545"><path d="m20.867188 413.691406c0 9.648438 7.820312 17.46875 17.46875 17.46875h14.082031c9.652343 0 17.472656-7.820312 17.472656-17.46875v-33.640625l-49.023437 8.34375zm0 0"/><path d="m134.421875 387.289062 7.976563-11.601562c5.464843-7.953125 3.453124-18.832031-4.5-24.296875l-27.722657-19.054687-20.894531 45.125 20.847656 14.328124c7.949219 5.46875 18.824219 3.453126 24.292969-4.5zm0 0"/><path d="m115.265625 494.527344c0 9.652344 7.820313 17.472656 17.46875 17.472656h14.082031c9.652344 0 17.472656-7.820312 17.472656-17.472656v-33.636719l-49.023437 8.34375zm0 0"/><path d="m223.019531 428.90625-30.609375-13.960938-12.753906 48.066407 23.015625 10.496093c8.777344 4.003907 19.140625.132813 23.148437-8.644531l5.84375-12.8125c4.003907-8.777343.132813-19.140625-8.644531-23.144531zm0 0"/><path d="m421.128906 380.050781v33.640625c0 9.648438 7.820313 17.46875 17.46875 17.46875h14.082032c9.648437 0 17.472656-7.820312 17.472656-17.46875v-25.296875zm0 0"/><path d="m353.121094 351.390625c-7.953125 5.46875-9.96875 16.34375-4.503906 24.296875l7.976562 11.605469c5.46875 7.949219 16.34375 9.964843 24.296875 4.5l20.84375-14.328125-20.894531-45.128906zm0 0"/><path d="m326.730469 494.527344c0 9.652344 7.820312 17.472656 17.46875 17.472656h14.082031c9.648438 0 17.472656-7.820312 17.472656-17.472656v-25.292969l-49.023437-8.34375zm0 0"/><path d="m268 428.90625c-8.78125 4.003906-12.648438 14.367188-8.644531 23.144531l5.84375 12.8125c4.003906 8.777344 14.367187 12.648438 23.144531 8.644531l23.015625-10.496093-12.753906-48.070313zm0 0"/></g><path d="m491.011719 376.421875c.273437 14.613281-12.046875 26.578125-26.660157 26.578125h-21.320312c-45.507812 0-82.402344-36.894531-82.402344-82.40625v-5.390625c0-10.457031-8.476562-18.941406-18.953125-18.941406-10.460937 0-18.941406 8.480469-18.941406 18.941406v86.230469c0 16.710937 13.539063 30.25 30.246094 30.25h21.90625c14.226562 0 25.804687 11.402344 26.066406 25.574218.28125 14.617188-12.035156 26.578126-26.652344 26.578126h-21.320312c-45.507813 0-82.402344-36.890626-82.402344-82.402344v-86.230469c0-10.460937-8.488281-18.941406-18.953125-18.941406h-12.234375c-10.460937 0-18.953125 8.480469-18.953125 18.941406v86.230469c0 45.511718-36.894531 82.402344-82.402344 82.402344h-21.90625c-14.226562 0-25.792968-11.398438-26.066406-25.574219-.28125-14.613281 12.039062-26.578125 26.664062-26.578125h21.308594c16.710938 0 30.25-13.539063 30.25-30.25v-86.230469c0-5.226563-2.117187-9.960937-5.550781-13.394531-3.429687-3.429688-8.167969-5.546875-13.390625-5.546875-10.472656 0-18.953125 8.480469-18.953125 18.941406v5.390625c0 45.53125-36.925781 82.40625-82.40625 82.40625h-21.902344c-14.238281 0-25.804687-11.402344-26.07812475-25.578125-.26953125-14.613281 12.04687475-26.578125 26.66015575-26.578125h21.320313c16.710937 0 30.25-13.539062 30.25-30.25v-153.300781c0-100.394531 87.867187-178.210938 187.609375-166.035157 82.789062 10.035157 146.925781 80.535157 146.925781 166.035157 0 6.859375.011719 144.070312.011719 153.300781 0 16.710938 13.550781 30.25 30.25 30.25h21.90625c14.234375 0 25.804688 11.402344 26.074219 25.578125zm0 0" fill="#fc7979"/><path d="m464.9375 350.84375h-21.90625c-16.699219 0-30.25-13.539062-30.25-30.25 0-.914062-.011719-87.238281-.011719-153.300781 0-85.5-64.136719-156-146.925781-166.035157-82.742188 10.019532-146.929688 80.503907-146.929688 166.035157v153.300781c0 16.710938-13.539062 30.25-30.246093 30.25h-21.324219c-14.613281 0-26.929688 11.964844-26.660156 26.578125.230468 11.859375 8.367187 21.78125 19.359375 24.699219 39.792969-5.839844 70.347656-40.117188 70.347656-81.527344v-5.390625c0-16.933594 20.519531-25.214844 32.34375-13.394531 3.433594 3.433594 5.550781 8.167968 5.550781 13.394531v86.230469c0 16.710937-13.539062 30.25-30.25 30.25h-21.308594c-14.625 0-26.945312 11.964844-26.664062 26.578125.273438 14.175781 11.839844 25.574219 26.066406 25.574219h21.90625c45.507813 0 82.402344-36.890626 82.402344-82.402344v-86.230469c0-10.460937 8.492188-18.941406 18.953125-18.941406h12.234375c10.464844 0 18.953125 8.480469 18.953125 18.941406v86.230469c0 45.511718 36.894531 82.402344 82.402344 82.402344h21.320312c14.617188 0 26.933594-11.960938 26.652344-26.578126-.261719-14.171874-11.839844-25.574218-26.066406-25.574218h-21.90625c-16.707031 0-30.246094-13.539063-30.246094-30.25v-86.230469c0-10.460937 8.480469-18.941406 18.941406-18.941406 10.480469 0 18.953125 8.492187 18.953125 18.941406v5.390625c0 45.511719 36.894532 82.40625 82.402344 82.40625h21.320312c14.613282 0 26.933594-11.964844 26.660157-26.578125-.269531-14.175781-11.839844-25.578125-26.074219-25.578125zm0 0" fill="#fd9a9a"/><path d="m228.996094 131.273438c0 23.84375-19.332032 43.175781-43.175782 43.175781s-43.175781-19.332031-43.175781-43.175781 19.332031-43.175782 43.175781-43.175782 43.175782 19.332032 43.175782 43.175782zm0 0" fill="#f44545"/><path d="m333.851562 186.785156c0 17.960938-14.5625 32.519532-32.523437 32.519532s-32.519531-14.558594-32.519531-32.519532c0-17.960937 14.558594-32.523437 32.519531-32.523437s32.523437 14.5625 32.523437 32.523437zm0 0" fill="#f44545"/><path d="m316.46875 85.292969c0 15.792969-12.804688 28.597656-28.597656 28.597656-15.792969 0-28.597656-12.804687-28.597656-28.597656s12.804687-28.597657 28.597656-28.597657c15.792968 0 28.597656 12.804688 28.597656 28.597657zm0 0" fill="#f44545"/></svg>